<svg version="1.1" xmlns="http://www.w3.org/2000/svg" xmlns:xlink="http://www.w3.org/1999/xlink" role="img" width="184" height="90" viewbox="0 0 184 90"><title>LPDet</title><desc>Generated by logo.svg, https://github.com/bubkoo/logo.svg</desc><path fill="#2b68a7" d="M-0.28 70.35L0.30 67.66L1.13 67.66Q3.24 67.66 4.94 66.86Q6.63 66.06 7.27 63.06L13.93 31.70Q14.18 30.67 14.18 29.90Q14.18 28.24 12.90 27.79Q11.62 27.34 9.58 27.34L8.74 27.34L9.32 24.66L27.94 24.66L27.37 27.34L26.54 27.34Q24.42 27.34 22.73 28.08Q21.03 28.82 20.39 31.70L12.84 67.15L25.45 67.15Q28.39 67.15 29.99 65.30Q31.59 63.44 32.30 61.39L33.96 56.59L37.29 56.59L33.96 70.35L-0.28 70.35ZM39.59 70.35L40.17 67.66L41 67.66Q43.11 67.66 44.81 66.86Q46.50 66.06 47.14 63.06L53.80 31.70Q54.06 30.67 54.06 29.90Q54.06 28.24 52.78 27.79Q51.50 27.34 49.45 27.34L48.62 27.34L49.19 24.66L65.58 24.66Q72.30 24.66 76.23 27.79Q80.17 30.93 80.17 37.01Q80.17 39.44 79.40 42.13Q78.63 44.82 76.55 47.18Q74.47 49.55 70.60 51.06Q66.73 52.56 60.58 52.56L55.85 52.56L53.54 63.31Q53.29 64.34 53.29 65.10Q53.29 66.77 54.57 67.22Q55.85 67.66 57.90 67.66L60.01 67.66L59.43 70.35L39.59 70.35M56.49 49.55L59.88 49.55Q64.81 49.55 67.78 47.95Q70.76 46.35 72.07 43.54Q73.38 40.72 73.38 37.07Q73.38 32.02 70.98 29.87Q68.58 27.73 64.04 27.73L61.10 27.73L56.49 49.55ZM79.21 70.35L79.72 67.66L80.55 67.66Q82.73 67.66 84.46 66.86Q86.18 66.06 86.82 63.06L93.48 31.70Q93.61 31.25 93.67 30.77Q93.74 30.29 93.74 29.90Q93.74 28.18 92.30 27.76Q90.86 27.34 89.13 27.34L88.30 27.34L88.87 24.66L106.79 24.66Q115.43 24.66 120.20 29.10Q124.97 33.55 124.97 42.06Q124.97 47.76 123.30 52.88Q121.64 58 118.38 61.94Q115.11 65.87 110.34 68.11Q105.58 70.35 99.37 70.35L79.21 70.35M92.39 67.09L97.96 67.09Q104.23 67.09 108.74 63.79Q113.26 60.50 115.62 54.70Q117.99 48.91 117.99 41.36Q117.99 34.38 114.70 31.12Q111.40 27.86 105.83 27.86L100.78 27.86L92.39 67.09ZM142.18 70.99Q138.73 70.99 135.91 69.52Q133.10 68.05 131.40 65.14Q129.70 62.22 129.70 57.74Q129.70 54.22 130.92 50.32Q132.14 46.42 134.57 43.02Q137 39.63 140.55 37.52Q144.10 35.41 148.78 35.41Q152.81 35.41 155.05 37.36Q157.29 39.31 157.29 42.77Q157.29 46.16 154.89 49.07Q152.49 51.98 148.30 53.78Q144.10 55.57 138.73 55.57L136.49 55.57Q136.42 56.27 136.39 56.94Q136.36 57.62 136.36 58.26Q136.36 62.42 138.15 64.69Q139.94 66.96 143.40 66.96Q146.47 66.96 148.87 65.49Q151.27 64.02 152.62 62.35Q153.26 62.80 153.26 63.95Q153.26 65.36 152.07 66.99Q150.89 68.62 148.46 69.81Q146.02 70.99 142.18 70.99M137.06 52.62L137.70 52.62Q141.42 52.62 144.36 51.38Q147.30 50.13 149 47.92Q150.70 45.71 150.70 42.77Q150.70 38.48 146.98 38.48Q145.13 38.48 143.56 39.73Q141.99 40.98 140.71 43.06Q139.43 45.14 138.50 47.63Q137.58 50.13 137.06 52.62ZM170.22 70.99Q163.24 70.99 163.24 63.50Q163.24 62.35 163.43 60.85Q163.62 59.34 163.88 58.13L167.78 39.70L162.92 39.70L163.50 37.14Q166.25 37.14 168.81 35.12Q171.37 33.10 173.29 28.18L176.23 28.18L174.57 36.05L182.31 36.05L181.54 39.70L173.80 39.70L169.90 57.94Q169.58 59.54 169.35 60.98Q169.13 62.42 169.13 63.44Q169.13 65.30 170.02 66.13Q170.92 66.96 172.52 66.96Q173.86 66.96 175.27 66.54Q176.68 66.13 177.77 65.55L178.86 67.92Q176.94 69.26 174.76 70.13Q172.58 70.99 170.22 70.99Z"></path></svg>